<svg xmlns="http://www.w3.org/2000/svg" xmlns:xlink="http://www.w3.org/1999/xlink" aria-hidden="true" role="img" class="iconify iconify--logos" width="32" height="32" viewBox="0 0 85 85">
<path d="M 42.5 80.5 C 21.7894 80.5 5 63.7106 5 43 C 5 22.2894 21.7894 5.5 42.5 5.5 C 63.2106 5.5 80 22.2894 80 43 C 80 63.7106 63.2106 80.5 42.5 80.5 Z" stroke="#252422" 
               stroke-width="2" fill="#252422" />
<path d="M38.4808 38.4008 53.6008 38.4008 53.6008 33.2008Q53.6008 28.9344 51.72 26.2088A8.976 8.976 90 0050.7208 25.0008 9.3704 9.3704 90 0046.3872 22.544Q44.6648 22.0808 42.5608 22.0808A16.0736 16.0736 90 0039.0672 22.4408 11.3032 11.3032 90 0034.6408 24.4408 9.2488 9.2488 90 0030.9784 30.676 11.7248 11.7248 90 0030.9608 30.8008L26.9608 30.8008Q27.7608 25.2008 32.0408 21.8008A15.5448 15.5448 90 0139.7432 18.5872 20.6208 20.6208 90 0142.5608 18.4008 18.3912 18.3912 90 0147.3744 18.9984 13.5448 13.5448 90 0153.4808 22.4808Q57.6008 26.5608 57.6008 33.2008L57.6008 63.2008 53.6008 63.2008 53.6008 54.2408 52.8808 54.2408 54.1608 52.6408A10.688 10.688 90 0153.3472 56.8704Q52.3816 59.1384 50.268 60.8272A12.5792 12.5792 90 0150.2008 60.8808 13.8904 13.8904 90 0144.948 63.4032Q42.9264 63.9168 40.5488 63.9888A25.972 25.972 90 0139.7608 64.0008 20.9024 20.9024 90 0135.2248 63.536Q31.9608 62.8104 29.5512 60.9544A13.0872 13.0872 90 0128.8808 60.4008Q24.8008 56.8008 24.8008 50.8808A13.8944 13.8944 90 0125.3744 46.7912 10.9416 10.9416 90 0128.5608 41.8008 12.8368 12.8368 90 0134.6544 38.7752 18.5608 18.5608 90 0138.4808 38.4008ZM53.6008 49.8408 53.6008 41.9208 38.4008 41.9208A12.864 12.864 90 0035.3968 42.2528 8.9632 8.9632 90 0031.4408 44.2808 7.7904 7.7904 90 0028.8416 49.6048 10.828 10.828 90 0028.8008 50.5608 9.46 9.46 90 0029.5304 54.3256 9.0144 9.0144 90 0032.1208 57.7208Q35.4408 60.4808 40.8808 60.4808A17.788 17.788 90 0044.8368 60.0648 12.228 12.228 90 0050.0808 57.5208 9.4688 9.4688 90 0053.5744 50.6392 12.0816 12.0816 90 0053.6008 49.8408Z" 
	stroke="#ffffff" stroke-width="2" fill="#fefae0" />
</svg>